<?xml version="1.0" encoding="UTF-8" standalone="no"?>
<svg
   width="3.5in"
   height="2in"
   viewBox="0 0 336 192"
   version="1.1"
   id="svg5"
   inkscape:version="1.1.2 (0a00cf5339, 2022-02-04, custom)"
   sodipodi:docname="logo.svg"
   xmlns:inkscape="http://www.inkscape.org/namespaces/inkscape"
   xmlns:sodipodi="http://sodipodi.sourceforge.net/DTD/sodipodi-0.dtd"
   xmlns="http://www.w3.org/2000/svg"
   xmlns:svg="http://www.w3.org/2000/svg">
  <sodipodi:namedview
     id="namedview7"
     pagecolor="#ffffff"
     bordercolor="#666666"
     borderopacity="1.0"
     inkscape:pageshadow="2"
     inkscape:pageopacity="0.0"
     inkscape:pagecheckerboard="0"
     inkscape:document-units="in"
     showgrid="false"
     inkscape:zoom="1.2626907"
     inkscape:cx="126.71354"
     inkscape:cy="92.263293"
     inkscape:window-width="1920"
     inkscape:window-height="1032"
     inkscape:window-x="0"
     inkscape:window-y="20"
     inkscape:window-maximized="1"
     inkscape:current-layer="layer1" />
  <defs
     id="defs2">
    <rect
       x="49.336003"
       y="45.191998"
       width="209.99998"
       height="78.624005"
       id="rect3290" />
  </defs>
  <g
     inkscape:label="Layer 1"
     inkscape:groupmode="layer"
     id="layer1">
    <text
       xml:space="preserve"
       id="text3288"
       style="font-style:normal;font-weight:normal;font-size:40px;line-height:1.25;font-family:sans-serif;white-space:pre;shape-inside:url(#rect3290);fill:#f55291;fill-opacity:1;stroke:#2c94e4;stroke-opacity:0.34898558"
       transform="matrix(1.9132362,0,0,1.9132362,-65.856467,-57.612897)"><tspan
         x="49.335938"
         y="82.417969"
         id="tspan33660"><tspan
           style="font-family:'FantasqueSansMono Nerd Font Mono';-inkscape-font-specification:'FantasqueSansMono Nerd Font Mono'"
           id="tspan33658">EVENTOS</tspan></tspan></text>
    <path
       id="rect16784"
       style="fill:#f55291;fill-opacity:1;stroke:#2c94e4;stroke-width:0.573971"
       d="m 40.47438,102.99146 c -10.17536,0 -18.366327,8.19097 -18.366327,18.36632 v 3.76669 c 0,8.41031 5.601077,15.45074 13.288027,17.6451 -1.93149,-1.5748 -3.39648,-4.55918 -2.58213,-10.20143 1.89556,-12.38434 17.54457,-2.32649 19.60319,-0.94541 v -0.13825 h 0.15321 C 46.78479,122.268 47.8209,120.93926 47.8209,120.93926 c 0,0 -1.11092,-8.54977 8.44141,-8.74408 0.98816,-0.0201 2.08885,0.0506 3.31828,0.22794 12.37871,1.8947 2.33761,17.41399 0.94913,19.46867 v 0.2952 c 9.21599,-5.65984 10.54523,-4.75692 10.54523,-4.75692 0,0 10.54336,-1.35413 8.65065,11.75967 -0.30001,1.96013 -0.95131,3.34697 -1.83475,4.30105 h 176.24567 c -1.18186,-1.77009 -1.84964,-4.50198 -1.24062,-8.72168 1.89556,-12.38434 17.54457,-2.3265 19.60321,-0.94541 v -0.13452 h 0.15694 c -5.78557,-9.21648 -4.7532,-10.54522 -4.7532,-10.54522 0,0 -1.11092,-8.54977 8.44141,-8.74408 0.98816,-0.0201 2.09258,0.0469 3.32201,0.22421 12.37871,1.8947 2.33388,17.41399 0.9454,19.46867 v 0.29519 c 9.21598,-5.65983 10.54522,-4.75691 10.54522,-4.75691 0,0 9.14091,-1.16643 8.86739,9.26723 3.81169,-3.36052 6.22177,-8.26916 6.22177,-13.7738 v -3.76669 c 0,-10.17535 -8.19096,-18.36632 -18.36632,-18.36632 z m 70.10216,8.07147 c 0.41188,0 0.83953,0.0399 1.27798,0.11957 0.43846,0.0664 0.95662,0.22586 1.55451,0.47831 0.61118,0.23916 1.18,0.55804 1.71144,0.95662 0.53146,0.38531 1.06956,0.93793 1.6143,1.65539 0.55803,0.70419 1.03094,1.52129 1.41625,2.45133 0.39859,0.93005 0.72286,2.09136 0.97529,3.48644 0.26573,1.39505 0.40524,2.93877 0.41852,4.62614 v 0.21674 c 0,1.5412 -0.17936,3.03592 -0.5381,4.48414 -0.34543,1.44821 -0.77476,2.67846 -1.29292,3.68821 -0.75732,1.44822 -1.76833,2.56427 -3.03053,3.34816 -1.2622,0.78389 -2.71167,1.1771 -4.3459,1.1771 -1.28877,0 -2.51527,-0.23376 -3.68447,-0.69879 -1.1559,-0.47831 -2.12166,-1.19578 -2.89228,-2.15239 -1.83351,-2.2454 -2.75027,-5.18043 -2.75027,-8.8076 0,-3.09574 0.26821,-5.52713 0.79967,-7.29422 0.53146,-1.78038 1.23438,-3.2643 2.1113,-4.44678 0.70416,-0.96991 1.62093,-1.75256 2.75027,-2.35045 1.12933,-0.59788 2.43016,-0.91135 3.90494,-0.93792 z m 62.99854,0.4783 c 1.58106,0 3.99796,0.0199 7.2531,0.0598 v 3.03053 c -0.86362,0 -1.82024,-0.0145 -2.86986,-0.0411 -1.03632,-0.0399 -1.85344,-0.0598 -2.45133,-0.0598 v 19.93203 h 1.1771 c 0.50488,-0.0133 0.9288,-0.0224 1.27423,-0.0224 0.99649,0 1.95311,0.0291 2.86986,0.0822 v 2.98943 c -1.3552,-0.0797 -2.75028,-0.11957 -4.18521,-0.11957 -0.2923,0 -0.776,0.005 -1.4536,0.0187 h -1.63298 c -0.35873,0 -1.25017,0.0253 -2.6718,0.0785 -1.42165,0.0399 -2.71706,0.0598 -3.88626,0.0598 v -2.96701 c 1.40835,-0.0665 2.68385,-0.1009 3.82647,-0.1009 h 1.49472 v -19.92829 c -2.55098,0.0399 -4.30478,0.0851 -5.2614,0.13825 l -0.11958,-3.06789 c 2.07267,-0.0531 4.28485,-0.0822 6.63654,-0.0822 z m -50.42051,0.0822 3.1688,0.0785 c 1.20905,1.76708 2.9284,4.67681 5.16052,8.72914 2.24539,4.05233 3.97386,7.36605 5.18291,9.9436 -0.0399,-2.59084 -0.0598,-5.24687 -0.0598,-7.97058 0,-4.14533 0.0797,-7.73267 0.23915,-10.76195 h 3.06791 c -0.1063,2.00624 -0.16069,4.83084 -0.16069,8.47131 0,1.48806 0.0145,3.83063 0.0411,7.03264 0.0266,3.20201 0.0411,5.57362 0.0411,7.11484 0,0.38531 -0.009,0.95247 -0.0224,1.69651 v 1.63297 l -3.1688,0.0187 c -3.00271,-6.57675 -6.45053,-13.26395 -10.34343,-20.06656 v 4.06563 9.02808 c 0.0133,3.83975 0.0224,6.14245 0.0224,6.91306 h -3.1688 z m 22.43943,0 h 3.2099 v 22.85793 h 10.38079 c 0.87692,-0.0399 1.68323,-0.18476 2.41397,-0.4372 l 0.81462,2.90722 c -1.1692,0.39859 -2.23085,0.59789 -3.18747,0.59789 H 145.594 Z m 40.93652,0 3.1688,0.0785 c 1.20905,1.76708 2.9284,4.67681 5.16051,8.72914 2.2454,4.05233 3.97387,7.36605 5.18292,9.9436 -0.0399,-2.59084 -0.0598,-5.24687 -0.0598,-7.97058 0,-4.14533 0.0797,-7.73267 0.23916,-10.76195 h 3.06791 c -0.1063,2.00624 -0.16069,4.83084 -0.16069,8.47131 0,1.48806 0.0145,3.83063 0.0411,7.03264 0.0266,3.20201 0.0411,5.57362 0.0411,7.11484 0,0.38531 -0.009,0.95247 -0.0224,1.69651 v 1.63297 l -3.1688,0.0187 c -3.00271,-6.57675 -6.45053,-13.26395 -10.34343,-20.06656 v 4.06563 9.02808 c 0.0133,3.83975 0.0224,6.14245 0.0224,6.91306 h -3.1688 z m 25.7278,0.0187 h 1.95434 2.18975 c 1.11605,0 2.49121,0.0145 4.12542,0.0411 1.64751,0.0133 2.65852,0.0187 3.03055,0.0187 h 0.31761 v 2.98943 H 211.3428 v 6.53565 h 8.72914 v 2.98943 h -8.72914 v 0.59789 c 0,1.55451 -0.0145,3.4968 -0.0411,5.82192 -0.0133,2.31182 -0.0187,3.61805 -0.0187,3.92363 l 10.46301,-0.0374 c 0.33216,0 0.69089,-0.0399 1.0762,-0.11958 0.38531,-0.093 0.68965,-0.18187 0.91552,-0.26157 l 0.34004,-0.13827 0.87441,2.94833 c -0.11958,0.0399 -0.3388,0.10879 -0.65768,0.20179 -0.31886,0.093 -0.56343,0.16358 -0.73613,0.21673 -0.17273,0.0399 -0.42643,0.0797 -0.75858,0.11958 -0.31886,0.0399 -0.65768,0.0598 -1.01641,0.0598 H 208.1927 V 111.7206 c 0.74404,-0.0531 2.09924,-0.0785 4.06562,-0.0785 z m -101.5622,2.47003 c -0.94333,0 -1.73139,0.15943 -2.36913,0.4783 -0.63774,0.30559 -1.24477,0.83829 -1.81608,1.59561 -1.56778,2.01953 -2.35043,5.29338 -2.35043,9.82402 0,1.14263 0.14489,2.35833 0.43719,3.64711 0.30559,1.28877 0.71871,2.27445 1.23689,2.95207 1.04962,1.39505 2.54973,2.0926 4.50282,2.0926 2.03282,0 3.58732,-0.99649 4.66352,-2.98943 0.3853,-0.61119 0.71331,-1.60226 0.97904,-2.97076 0.26573,-1.36848 0.40524,-2.61867 0.41852,-3.74799 v -0.37743 c 0,-3.12228 -0.46752,-5.58816 -1.39756,-7.3951 -1.04962,-2.07266 -2.48455,-3.109 -4.30478,-3.109 z"
       sodipodi:nodetypes="sssccccccsccccccccccccscccccssssccccccccsccssccsccsccccccccsccscscccsccccccccccsccssscccccccccccccccsccccccsccssscccccccccccscscccccccscccccccsccsccscsccsccscscscs" />
  </g>
</svg>
